<?xml version="1.0" standalone="no"?>
<!DOCTYPE svg PUBLIC "-//W3C//DTD SVG 20010904//EN"
 "http://www.w3.org/TR/2001/REC-SVG-20010904/DTD/svg10.dtd">
<svg version="1.0" xmlns="http://www.w3.org/2000/svg"
 width="511.301826pt" height="1598.854185pt" viewBox="0 0 511.301826 1598.854185"
 preserveAspectRatio="xMidYMid meet">
<metadata>
Created by potrace 1.12, written by Peter Selinger 2001-2015
</metadata>
<g transform="translate(-499.283023,1883.000000) scale(0.100000,-0.100000)"
fill="#000000" stroke="none">
<path d="M6569 18804 c-19 -14 -44 -30 -56 -34 -14 -6 -26 -24 -33 -52 -7 -24
-18 -58 -26 -76 -17 -39 -18 -135 -3 -164 8 -14 8 -23 0 -31 -23 -23 -2 -141
55 -314 19 -56 34 -111 34 -123 0 -35 60 -211 95 -280 19 -36 49 -108 68 -161
38 -105 80 -190 126 -259 17 -25 34 -60 37 -78 5 -26 10 -31 25 -27 15 5 19 1
19 -15 0 -12 9 -33 19 -47 11 -13 18 -30 15 -37 -3 -7 15 -36 39 -64 24 -28
72 -102 107 -164 55 -97 97 -161 197 -297 10 -13 58 -67 107 -119 48 -53 95
-107 104 -121 29 -47 174 -201 188 -201 8 0 14 -7 14 -15 0 -8 12 -21 28 -29
15 -8 36 -24 47 -36 11 -12 33 -29 48 -37 15 -7 57 -38 92 -68 35 -30 84 -64
108 -75 59 -28 167 -126 167 -152 0 -11 -16 -45 -35 -76 -19 -32 -39 -79 -46
-107 -6 -27 -21 -77 -33 -110 -37 -107 -51 -531 -23 -715 9 -58 15 -121 15
-140 0 -19 4 -53 10 -75 12 -43 1 -99 -21 -108 -7 -2 -64 0 -127 6 -80 7 -242
6 -539 -2 -466 -13 -454 -14 -484 47 -25 47 -39 126 -29 153 22 58 -7 54 562
78 344 14 428 28 475 80 18 20 18 25 4 49 -30 55 -140 81 -199 47 -14 -8 -39
-14 -56 -15 -16 0 -35 -5 -42 -12 -8 -8 -15 -8 -28 3 -14 12 -84 14 -411 11
-222 -2 -400 1 -409 6 -18 10 -36 51 -66 157 -11 39 -24 75 -29 81 -5 6 -4 15
2 21 7 7 3 33 -16 84 -15 41 -40 117 -57 169 -16 52 -41 118 -53 145 -13 28
-29 79 -35 115 -7 35 -19 78 -27 95 -17 32 -18 36 -30 167 -4 48 -14 93 -20
99 -18 18 -64 0 -81 -31 -28 -54 14 -299 112 -642 35 -123 69 -254 76 -293 7
-38 21 -86 30 -105 28 -57 33 -95 15 -114 -9 -9 -23 -16 -31 -16 -8 0 -32 -9
-54 -20 -66 -33 -130 -21 -130 24 0 13 -7 26 -15 30 -8 3 -15 18 -15 33 0 15
-9 57 -20 91 -11 35 -20 75 -20 89 0 32 -46 110 -77 130 -29 20 -50 6 -35 -23
5 -11 13 -49 17 -86 3 -37 11 -70 16 -73 5 -4 9 -19 9 -34 0 -15 9 -54 20 -86
29 -85 27 -127 -12 -170 -35 -40 -81 -67 -147 -85 -24 -6 -50 -18 -58 -26 -8
-8 -22 -14 -30 -14 -22 0 -102 -52 -138 -90 -16 -16 -33 -30 -37 -30 -5 0 -48
-34 -96 -77 -48 -42 -88 -77 -90 -78 -7 -6 20 -56 33 -61 9 -4 47 15 93 45 43
28 83 51 88 51 5 0 22 14 37 31 19 22 32 29 47 24 13 -4 22 -1 26 9 3 8 22 20
42 27 21 6 46 16 57 22 11 6 25 12 30 13 6 1 30 11 55 22 66 30 138 37 183 19
22 -10 37 -23 37 -33 0 -9 16 -57 36 -106 l36 -90 -34 -29 c-39 -35 -162 -99
-187 -99 -10 0 -24 -6 -30 -14 -6 -7 -24 -16 -40 -19 -15 -3 -43 -19 -61 -34
-19 -15 -55 -39 -82 -53 -55 -28 -221 -178 -249 -224 -19 -31 -25 -77 -12 -89
7 -8 78 31 132 71 19 14 52 35 73 47 20 11 58 33 84 49 57 36 293 140 388 172
48 15 75 20 87 13 9 -5 26 -39 38 -77 11 -37 70 -174 131 -304 60 -131 110
-243 110 -250 0 -7 9 -28 20 -46 12 -19 48 -97 80 -173 33 -77 77 -170 99
-207 21 -37 59 -108 85 -159 25 -51 59 -107 75 -125 15 -18 31 -46 35 -63 6
-24 91 -135 225 -291 20 -23 107 -42 121 -27 5 4 9 31 11 58 2 49 0 52 -57
110 -33 33 -74 89 -93 124 -18 35 -56 88 -83 118 -64 71 -103 133 -124 197
-18 56 -121 267 -159 325 -12 20 -28 53 -34 73 -7 20 -19 42 -27 48 -7 7 -14
20 -14 29 0 9 -14 36 -30 60 -17 24 -30 56 -30 70 0 15 -6 35 -14 46 -7 11
-26 52 -41 90 -15 39 -61 141 -101 227 -41 86 -74 164 -74 172 0 18 54 64 86
72 50 13 95 -42 128 -157 9 -31 23 -64 31 -75 8 -10 15 -28 15 -38 0 -11 25
-73 56 -139 31 -65 73 -169 94 -230 53 -154 61 -174 98 -238 17 -31 32 -65 32
-76 0 -11 11 -30 25 -43 13 -13 42 -53 64 -90 22 -37 47 -72 55 -80 9 -7 16
-21 16 -31 0 -30 105 -223 177 -326 43 -62 67 -107 70 -132 4 -26 10 -38 21
-37 8 0 17 -5 19 -11 3 -7 -2 -13 -11 -13 -27 0 -18 -18 21 -45 29 -19 50 -25
95 -25 99 0 111 39 43 141 -21 29 -50 80 -66 111 -16 31 -37 63 -46 70 -10 7
-23 25 -30 39 -6 14 -33 52 -61 85 -36 43 -52 73 -57 104 -8 50 -62 160 -82
167 -7 3 -13 14 -13 25 0 11 -20 47 -44 82 -25 34 -57 86 -72 116 -15 30 -36
67 -46 82 -11 16 -17 32 -13 38 3 5 -1 23 -10 39 -8 16 -12 37 -9 45 3 9 2 16
-4 16 -6 0 -14 15 -17 33 -11 46 -59 151 -90 190 -14 19 -34 63 -44 98 -11 35
-31 91 -45 124 -14 33 -26 70 -26 82 0 12 -4 25 -10 28 -15 9 -12 88 4 111 9
12 29 20 53 22 110 9 710 12 853 4 213 -12 246 -27 257 -114 3 -24 16 -63 28
-88 13 -25 41 -93 64 -151 54 -138 193 -352 306 -469 122 -128 185 -205 185
-229 0 -20 -44 -51 -73 -51 -31 0 -217 -101 -296 -160 -74 -56 -208 -203 -247
-271 -6 -11 -20 -30 -31 -42 -27 -29 -39 -54 -47 -98 -4 -20 -20 -54 -36 -74
-17 -21 -35 -56 -41 -78 -6 -22 -14 -47 -19 -56 -24 -44 -42 -98 -76 -231
l-38 -145 0 -253 -1 -252 -35 -21 c-32 -20 -40 -21 -106 -11 -39 6 -106 25
-149 43 -79 31 -185 54 -414 89 -86 14 -128 24 -133 35 -7 12 -32 15 -129 15
-103 0 -128 3 -177 24 -31 13 -90 31 -130 41 -40 10 -79 23 -86 31 -7 7 -16
36 -20 64 -6 41 -12 53 -32 62 -34 16 -125 -3 -219 -45 -42 -18 -93 -32 -128
-35 -53 -4 -59 -3 -64 17 -3 12 -20 28 -38 35 -35 15 -175 180 -175 207 0 8
-11 30 -25 49 -14 19 -25 40 -25 48 0 8 -16 53 -35 101 -34 85 -34 87 -26 181
6 75 16 113 45 180 20 47 44 96 55 110 46 63 186 114 347 127 l83 6 15 -37 c8
-20 19 -36 24 -36 5 0 12 -9 15 -20 4 -15 14 -20 41 -20 28 0 37 5 48 27 13
27 26 34 142 70 71 22 88 42 66 80 -37 64 -111 83 -330 83 -136 0 -145 -2
-204 -44 -24 -17 -33 -17 -107 -6 l-82 12 -65 -64 c-97 -95 -175 -222 -195
-318 -35 -161 22 -418 127 -574 45 -67 186 -236 197 -236 3 0 18 -12 33 -26
30 -30 35 -78 11 -109 -97 -127 -126 -198 -154 -374 -10 -64 -35 -106 -54 -94
-6 4 -35 8 -64 9 -62 3 -309 51 -335 65 -10 6 -18 19 -18 29 0 11 -4 20 -8 20
-19 0 -32 123 -30 285 2 136 -1 181 -15 224 -24 75 -23 111 3 111 11 0 20 3
20 8 0 15 -31 52 -44 52 -14 0 -26 21 -26 46 0 10 6 13 19 9 27 -8 31 19 21
133 -5 53 -14 194 -20 313 -5 119 -15 231 -21 249 -9 24 -9 45 1 85 7 29 9 62
5 72 -4 10 -11 88 -16 173 -5 85 -10 175 -12 200 -1 25 -6 50 -10 57 -4 6 -2
24 3 39 8 20 6 57 -9 148 -12 67 -28 207 -36 311 -18 208 -28 265 -50 265 -20
0 -24 11 -40 109 -17 106 -32 141 -56 141 -10 0 -26 -11 -35 -25 -16 -24 -15
-38 5 -225 12 -110 26 -211 31 -225 6 -15 10 -48 10 -74 0 -32 5 -53 16 -62
13 -11 15 -24 10 -69 -9 -76 -9 -85 3 -170 11 -81 35 -376 52 -635 5 -88 18
-196 29 -240 14 -58 19 -116 19 -211 0 -144 25 -429 42 -482 6 -19 17 -45 24
-59 11 -21 11 -33 -1 -72 -27 -87 -36 -234 -23 -378 6 -74 9 -137 6 -140 -14
-13 -97 -15 -113 -2 -13 10 -17 10 -25 -2 -13 -20 -11 -55 4 -67 6 -6 24 -13
39 -17 39 -10 86 -67 93 -112 3 -21 15 -85 25 -143 21 -111 33 -288 50 -715 6
-143 15 -372 21 -510 6 -137 13 -371 16 -520 3 -152 10 -278 15 -289 10 -19
19 -228 37 -941 6 -214 15 -466 21 -560 5 -93 15 -307 20 -475 11 -296 19
-460 39 -760 6 -80 15 -316 21 -525 6 -209 15 -443 20 -520 5 -77 14 -288 20
-470 10 -321 20 -524 41 -790 6 -71 10 -162 9 -202 -1 -39 10 -147 24 -240 14
-92 32 -218 40 -280 20 -148 54 -216 110 -221 25 -2 46 3 66 18 16 11 64 27
107 36 81 15 105 30 130 78 21 40 19 86 -6 134 -24 46 -55 72 -89 72 -17 0
-27 -10 -41 -43 -35 -82 -109 -113 -149 -63 -14 19 -20 48 -25 123 -4 54 -11
114 -17 133 -5 19 -10 55 -10 80 0 25 -6 52 -12 58 -10 10 -8 14 10 18 25 7
29 22 7 30 -8 4 -15 16 -15 28 0 12 -6 28 -12 34 -9 9 -14 91 -19 285 -5 206
-11 292 -25 355 -15 70 -16 93 -6 138 6 33 8 64 3 77 -12 30 -20 174 -31 537
-5 167 -14 358 -19 425 -6 66 -15 226 -20 355 -13 292 -7 332 55 340 38 5 39
6 47 55 13 77 40 139 65 150 13 6 22 19 22 32 0 13 5 23 12 23 6 0 26 11 44
25 18 14 37 25 43 25 5 0 26 10 46 22 42 24 132 48 185 48 19 0 57 12 83 26
56 29 184 64 238 64 29 0 43 6 63 31 20 24 24 34 16 49 -16 29 -72 69 -124 86
-25 9 -51 25 -57 35 -5 10 -18 19 -28 19 -11 0 -21 6 -24 14 -3 7 -29 27 -59
45 -137 82 -157 98 -145 110 8 8 9 14 1 19 -6 4 -13 15 -17 24 -3 9 -40 40
-81 68 -81 54 -100 76 -111 126 -13 64 49 144 111 144 12 0 49 9 83 20 33 10
108 26 165 35 57 8 119 21 138 29 19 8 132 26 252 40 120 15 246 33 279 42 34
9 75 13 94 9 20 -3 58 2 100 14 91 27 138 31 138 11 0 -19 57 -39 111 -39 113
-2 239 192 154 237 -16 8 -48 11 -90 8 -69 -5 -192 -26 -200 -36 -3 -3 -27 -5
-55 -6 -47 0 -328 -54 -460 -87 -33 -9 -130 -21 -215 -27 -85 -6 -175 -15
-200 -20 -25 -5 -73 -14 -108 -20 -35 -6 -78 -20 -95 -31 -18 -10 -39 -19 -47
-19 -9 0 -33 -9 -55 -20 -22 -11 -50 -20 -62 -20 -13 0 -40 -15 -60 -33 -21
-18 -50 -38 -65 -45 -16 -6 -28 -18 -28 -26 0 -8 -16 -20 -35 -27 -19 -7 -32
-15 -30 -18 3 -2 -2 -13 -11 -23 -13 -13 -15 -29 -11 -67 8 -68 27 -101 103
-177 35 -36 64 -70 64 -77 0 -14 56 -58 175 -137 118 -79 185 -129 185 -140 0
-5 -13 -16 -29 -24 -16 -9 -31 -24 -33 -34 -4 -15 -18 -20 -71 -26 -37 -3 -79
-13 -94 -20 -205 -99 -226 -111 -254 -152 -16 -24 -41 -52 -55 -63 -14 -11
-23 -24 -20 -29 3 -6 -2 -16 -11 -23 -15 -12 -16 -12 -10 3 5 14 1 17 -16 15
-21 -2 -23 4 -35 103 -7 58 -15 238 -18 400 -6 328 -17 641 -33 920 -9 157
-20 527 -37 1295 -2 83 -11 202 -20 265 -9 67 -14 139 -10 172 3 31 1 83 -5
115 -10 55 -17 200 -39 788 -9 270 -26 541 -36 582 -5 17 1 25 24 37 17 9 34
25 37 37 6 18 12 20 43 14 21 -4 76 -13 123 -20 95 -14 120 -24 162 -64 41
-37 54 -77 67 -192 6 -56 17 -111 24 -123 8 -11 16 -33 20 -47 8 -36 145 -201
189 -228 19 -11 50 -21 70 -21 26 0 36 -5 40 -20 4 -16 14 -20 44 -20 52 0
155 -19 168 -31 26 -26 213 2 256 38 8 7 20 13 26 13 16 0 123 100 123 115 0
7 9 34 21 60 15 33 23 77 26 144 l5 96 -40 33 c-23 17 -44 32 -48 32 -4 0 -17
9 -28 19 -12 11 -50 30 -86 44 -36 13 -110 45 -166 71 -56 25 -111 46 -122 46
-12 0 -25 6 -29 14 -10 16 -48 24 -173 35 -108 10 -168 33 -177 69 -6 24 0
103 15 200 7 40 17 61 44 90 20 20 52 59 73 87 33 44 48 54 124 83 81 32 91
34 176 29 60 -3 115 -14 165 -31 41 -15 156 -47 255 -72 99 -24 190 -49 202
-54 12 -5 71 -14 130 -20 59 -6 121 -18 137 -26 16 -8 44 -14 62 -14 18 0 56
-8 86 -19 49 -17 145 -46 243 -72 134 -37 202 -80 244 -154 36 -63 131 -301
131 -327 0 -9 15 -45 34 -81 19 -36 32 -67 30 -70 -3 -3 3 -14 14 -25 11 -11
27 -40 37 -66 10 -26 34 -63 54 -84 20 -21 54 -58 76 -82 114 -126 313 -297
405 -347 36 -20 94 -53 130 -74 80 -46 189 -71 320 -72 131 -1 260 32 260 67
0 8 9 16 20 19 35 9 53 71 58 202 l4 120 -34 46 c-40 56 -121 125 -157 134
-36 9 -73 34 -66 45 8 14 41 12 65 -2 27 -17 36 -3 19 29 -18 33 -210 206
-253 227 -17 9 -41 27 -54 40 -13 14 -47 34 -75 45 -34 13 -52 25 -51 35 1 9
-4 16 -11 16 -7 0 -33 18 -58 40 -50 44 -120 84 -242 137 -74 32 -123 51 -307
115 -37 12 -68 29 -68 36 0 15 -13 15 -28 0 -10 -10 -15 -10 -20 -1 -4 6 -28
20 -52 31 -106 45 -132 151 -112 457 13 190 40 350 67 391 10 16 12 24 4 24
-8 0 -7 6 3 18 9 9 53 91 99 182 54 107 108 198 155 260 72 94 193 220 212
220 5 0 36 16 68 35 32 20 108 51 168 71 126 41 214 48 244 21 10 -9 23 -17
28 -17 6 0 26 -14 44 -30 19 -17 50 -35 70 -40 20 -5 71 -39 114 -75 44 -36
85 -65 92 -65 8 0 14 -9 14 -20 0 -38 104 -85 152 -68 24 8 31 21 50 81 11 39
22 91 22 115 1 39 -3 48 -37 77 -51 44 -155 85 -215 85 -41 0 -60 8 -132 55
-84 55 -128 75 -206 95 -22 5 -62 24 -90 42 -70 46 -273 252 -320 325 -143
225 -235 463 -269 703 -12 82 -23 120 -51 174 -49 95 -62 167 -75 421 -11 206
-11 231 10 387 13 100 29 186 41 213 11 26 20 53 20 61 0 8 9 23 20 34 11 11
20 24 20 29 0 15 51 51 73 51 26 0 116 -46 225 -116 90 -57 639 -333 704 -354
20 -6 42 -18 48 -26 7 -7 27 -14 45 -14 18 0 43 -8 56 -18 39 -30 238 -67 359
-67 93 0 112 3 162 27 70 32 112 87 128 165 14 67 1 160 -29 202 -50 69 -327
270 -374 271 -10 0 -25 -7 -33 -15 -18 -18 -47 -19 -77 -3 -33 17 -46 39 -47
79 0 36 -14 59 -37 59 -8 0 -69 25 -136 56 -108 50 -347 123 -405 124 -10 1
-35 9 -57 20 -49 24 -86 24 -201 5 -144 -25 -294 -81 -279 -105 7 -11 -98 -50
-134 -50 -18 0 -51 16 -87 43 -33 24 -87 62 -120 85 -34 22 -75 54 -91 69 -16
15 -73 68 -126 116 -53 49 -144 145 -202 215 -57 70 -131 159 -163 197 -33 39
-76 94 -96 123 -21 28 -41 52 -46 52 -4 0 -10 11 -14 23 -3 13 -19 41 -36 62
-16 21 -30 43 -30 50 0 7 -6 15 -14 18 -8 3 -19 23 -26 44 -7 21 -31 67 -55
103 -50 76 -85 144 -85 163 0 8 -22 45 -50 82 -27 37 -50 74 -50 81 0 7 -9 18
-20 24 -11 6 -20 18 -20 27 0 9 -13 46 -29 82 -17 36 -37 91 -45 122 -9 30
-26 72 -40 91 -13 20 -27 47 -31 59 -4 13 -18 48 -32 78 -14 29 -36 97 -49
150 -22 88 -33 122 -54 176 -23 58 -50 210 -50 281 0 132 32 185 88 147 15 -9
30 -16 35 -15 4 1 7 -8 7 -21 0 -40 70 -97 137 -113 67 -16 133 -18 133 -5 0
6 -23 36 -51 68 -51 58 -80 105 -94 153 -13 44 -54 90 -80 90 -14 0 -29 8 -34
19 -14 24 -62 41 -121 41 -34 0 -55 -7 -81 -26z m2392 -3000 c29 -8 83 -22
119 -30 123 -28 381 -144 500 -224 30 -20 87 -54 127 -74 131 -69 182 -140
183 -254 0 -59 -2 -63 -27 -73 -48 -18 -240 15 -299 52 -18 11 -59 27 -91 35
-32 8 -92 32 -133 52 -41 20 -82 36 -92 35 -9 -1 -22 4 -28 12 -7 8 -20 15
-29 15 -9 0 -29 9 -46 21 -50 34 -138 76 -185 89 -24 7 -55 20 -68 31 -14 10
-31 19 -39 19 -19 0 -124 54 -159 82 -44 36 -75 54 -119 68 -86 27 -111 84
-52 120 17 11 46 20 62 20 17 0 48 7 70 15 50 19 224 13 306 -11z m843 -226
c8 -12 12 -26 9 -32 -4 -6 -8 -4 -11 4 -3 8 -11 23 -20 33 -9 10 -10 17 -4 17
6 0 18 -10 26 -22z m-3136 -1005 c27 -23 82 -165 82 -210 0 -26 -5 -36 -20
-40 -11 -3 -20 -10 -20 -15 0 -5 -9 -6 -20 -3 -12 4 -27 1 -35 -5 -8 -6 -26
-10 -42 -8 -25 3 -34 16 -81 108 -64 127 -64 151 1 174 58 20 111 20 135 -1z
m2660 -1653 c23 -17 42 -37 42 -45 0 -20 -17 -19 -30 3 -8 12 -13 13 -16 5 -9
-22 -40 -14 -52 12 -7 15 -20 25 -32 25 -22 0 -27 15 -7 23 28 12 56 5 95 -23z
m-1159 -1809 c58 -27 138 -59 176 -72 39 -12 88 -31 110 -42 22 -11 69 -30
105 -41 58 -19 206 -115 225 -146 3 -5 17 -10 30 -10 13 0 28 -6 32 -13 4 -7
22 -22 40 -32 52 -33 234 -197 275 -248 21 -27 38 -59 38 -71 0 -13 13 -43 30
-67 16 -24 33 -60 36 -79 4 -19 15 -51 24 -70 25 -50 42 -118 35 -140 -12 -36
-85 -70 -152 -70 -75 0 -248 43 -286 71 -16 11 -35 18 -46 14 -11 -3 -40 9
-77 33 -32 21 -91 57 -131 81 -40 24 -118 85 -174 137 -55 51 -110 96 -120 99
-11 4 -19 14 -18 23 2 9 -13 42 -32 72 -20 30 -55 91 -79 135 -24 44 -54 94
-66 112 -13 17 -24 38 -24 47 0 8 -5 18 -11 21 -6 4 -8 13 -5 21 3 7 -6 48
-19 89 -14 42 -25 82 -25 89 0 8 -7 16 -15 20 -26 10 -14 86 14 86 2 0 52 -22
110 -49z m-2101 -186 c66 -14 133 -25 149 -25 15 0 60 -11 98 -25 39 -13 78
-25 89 -25 27 0 125 -63 169 -108 46 -47 56 -85 57 -207 0 -104 -9 -124 -70
-155 -50 -26 -224 -39 -268 -21 -23 10 -35 10 -52 1 -27 -14 -73 0 -110 34
-14 12 -45 30 -70 39 -50 19 -65 43 -136 226 -31 80 -36 103 -32 155 2 42 11
74 27 99 12 20 24 37 26 37 1 0 57 -11 123 -25z"/>
<path d="M6191 15207 c-6 -8 -8 -17 -4 -20 7 -8 33 11 33 24 0 13 -16 11 -29
-4z"/>
<path d="M6027 10125 c-5 -10 -13 -15 -23 -11 -9 4 -32 -7 -57 -28 -23 -18
-60 -45 -83 -59 -32 -20 -49 -41 -77 -102 -20 -42 -41 -94 -47 -115 -14 -51
-15 -271 -2 -296 5 -10 16 -35 25 -55 10 -23 27 -42 49 -52 19 -9 40 -28 46
-43 8 -16 18 -24 27 -21 7 3 25 -3 38 -14 14 -10 32 -19 40 -19 9 0 19 -5 22
-10 4 -6 29 -22 56 -35 43 -23 49 -29 49 -58 0 -27 -12 -44 -77 -107 -107
-103 -131 -134 -160 -199 -28 -62 -29 -83 -13 -249 13 -137 42 -218 101 -278
l40 -40 -24 -26 c-40 -43 -104 -80 -140 -81 -23 -1 -51 10 -87 33 -42 27 -53
31 -61 19 -25 -40 6 -96 74 -131 34 -17 53 -20 107 -15 76 6 100 14 100 32 0
8 21 15 58 19 31 4 82 13 112 21 30 8 72 15 92 15 20 0 38 4 40 9 2 6 33 15
69 20 129 21 293 85 363 142 31 26 37 37 34 63 -3 28 -6 31 -38 30 -78 -2
-187 -23 -220 -42 -19 -12 -69 -26 -110 -32 -41 -7 -86 -19 -99 -27 -36 -23
-170 -15 -208 13 -24 18 -65 83 -102 162 -29 61 -23 202 11 293 14 37 104 149
120 149 5 0 26 14 47 30 24 19 44 28 54 24 10 -4 28 4 47 19 20 17 48 28 85
32 30 4 58 11 61 16 3 6 21 7 40 3 30 -5 40 -2 65 22 33 31 35 42 15 69 -10
14 -24 18 -54 17 -50 -3 -225 61 -264 96 -25 23 -33 24 -85 19 -32 -4 -72 -9
-90 -13 -28 -6 -33 -3 -49 27 -9 19 -32 51 -50 72 -19 20 -34 43 -34 51 0 7
-10 26 -21 40 -19 24 -21 36 -16 89 13 128 35 180 124 295 10 13 38 30 63 39
56 19 175 29 192 16 24 -19 181 -66 219 -66 51 0 69 17 69 63 0 46 -20 72 -85
110 -98 57 -113 61 -245 67 -115 5 -127 4 -133 -12z"/>
<path d="M6755 6971 c4 -7 2 -17 -3 -24 -6 -7 -17 -74 -26 -150 -9 -76 -21
-147 -26 -158 -6 -11 -14 -58 -17 -104 -4 -53 -11 -89 -19 -96 -20 -16 -17
-29 6 -29 11 0 20 -4 20 -10 0 -48 63 74 99 192 29 96 51 221 51 289 0 50 -3
61 -22 73 -33 21 -72 31 -63 17z"/>
<path d="M7118 6294 c-7 -8 -23 -25 -35 -36 -13 -12 -23 -30 -23 -39 0 -10
-20 -41 -45 -69 -50 -56 -49 -54 -35 -81 7 -12 21 -19 41 -19 59 0 179 144
179 216 0 41 -55 61 -82 28z"/>
<path d="M6295 5930 c-158 -7 -223 -26 -291 -84 -21 -18 -54 -41 -72 -50 -48
-25 -87 -111 -78 -172 10 -76 41 -117 191 -260 161 -152 185 -184 185 -238 0
-81 -18 -119 -101 -209 -43 -48 -79 -91 -79 -96 0 -5 -22 -25 -49 -45 -27 -20
-54 -50 -62 -68 -7 -18 -19 -37 -26 -41 -20 -12 -16 -43 11 -74 22 -26 26 -27
50 -13 15 7 51 44 81 81 30 38 79 84 109 104 73 48 142 124 155 171 6 21 20
86 32 145 21 101 22 108 6 142 -9 19 -17 42 -17 51 0 8 -12 23 -26 33 -15 10
-71 59 -125 110 -54 50 -108 94 -119 98 -13 4 -20 15 -20 30 0 13 -11 41 -25
61 -24 35 -35 102 -16 89 5 -3 54 17 108 45 68 35 115 52 153 56 54 6 57 5
105 -35 35 -29 58 -41 75 -39 25 3 25 3 22 97 -2 85 -13 124 -31 119 -3 -1
-69 -4 -146 -8z"/>
</g>
</svg>
